<svg width="280" height="36" viewBox="0 0 280 36" fill="none" xmlns="http://www.w3.org/2000/svg">
<path d="M8.45 0.349998V28.8965H21.95L21.1 35.488H0.25V0.349998H8.45ZM47.4023 35.488H40.5523L40.2023 32.0908C38.269 34.9303 35.5857 36.35 32.1523 36.35C29.719 36.35 27.869 35.6064 26.6023 34.119C25.369 32.6317 24.7523 30.5528 24.7523 27.8824V8.56408H32.6523V26.8683C32.6523 28.1866 32.8523 29.1162 33.2523 29.657C33.6857 30.1641 34.3357 30.4176 35.2023 30.4176C36.869 30.4176 38.3023 29.3698 39.5023 27.2739V8.56408H47.4023V35.488ZM65.1156 7.70211C66.949 7.70211 68.599 7.97254 70.0656 8.51338C71.5323 9.05422 72.9156 9.88239 74.2156 10.9979L70.8156 15.7641C69.149 14.4795 67.4656 13.8373 65.7656 13.8373C63.999 13.8373 62.6656 14.4965 61.7656 15.8148C60.8656 17.1331 60.4156 19.2627 60.4156 22.2035C60.4156 25.043 60.8656 27.0542 61.7656 28.2373C62.6656 29.4205 63.9656 30.012 65.6656 30.012C66.5656 30.012 67.3823 29.8768 68.1156 29.6063C68.849 29.3021 69.7323 28.8288 70.7656 28.1866L74.2156 33.1556C71.5823 35.2852 68.599 36.35 65.2656 36.35C62.5656 36.35 60.2323 35.7753 58.2656 34.6261C56.299 33.4429 54.7823 31.8036 53.7156 29.7077C52.649 27.5782 52.1156 25.0937 52.1156 22.2542C52.1156 19.4148 52.649 16.8965 53.7156 14.6993C54.7823 12.5021 56.299 10.7951 58.2656 9.57817C60.2323 8.32746 62.5156 7.70211 65.1156 7.70211ZM98.1531 27.6796C98.1531 28.6937 98.2865 29.4373 98.5531 29.9106C98.8531 30.3838 99.3198 30.7388 99.9531 30.9753L98.3031 36.1979C96.6698 36.0627 95.3365 35.7078 94.3031 35.1331C93.2698 34.5246 92.4698 33.5782 91.9031 32.2937C90.1698 34.9979 87.5031 36.35 83.9031 36.35C81.2698 36.35 79.1698 35.5725 77.6031 34.0176C76.0365 32.4627 75.2531 30.4345 75.2531 27.9331C75.2531 24.9923 76.3198 22.7443 78.4531 21.1894C80.5865 19.6345 83.6698 18.857 87.7031 18.857H90.4031V17.6908C90.4031 16.1021 90.0698 15.0205 89.4031 14.4458C88.7365 13.8373 87.5698 13.5331 85.9031 13.5331C85.0365 13.5331 83.9865 13.6683 82.7531 13.9387C81.5198 14.1753 80.2531 14.5134 78.9531 14.9528L77.1531 9.67958C78.8198 9.03733 80.5198 8.54718 82.2531 8.20915C84.0198 7.87112 85.6531 7.70211 87.1531 7.70211C90.9531 7.70211 93.7365 8.49647 95.5031 10.0852C97.2698 11.674 98.1531 14.0571 98.1531 17.2345V27.6796ZM86.2031 30.6204C88.0031 30.6204 89.4031 29.7584 90.4031 28.0345V23.2683H88.4531C86.6531 23.2683 85.3031 23.5895 84.4031 24.2317C83.5365 24.8739 83.1031 25.8712 83.1031 27.2232C83.1031 28.305 83.3698 29.15 83.9031 29.7584C84.4698 30.3331 85.2365 30.6204 86.2031 30.6204ZM113.307 7.70211C115.207 7.70211 116.991 7.98943 118.657 8.56408C120.324 9.13873 121.791 9.95 123.057 10.9979L120.157 15.5106C117.991 14.1246 115.807 13.4317 113.607 13.4317C112.574 13.4317 111.774 13.6176 111.207 13.9894C110.674 14.3274 110.407 14.8176 110.407 15.4599C110.407 15.9669 110.524 16.3895 110.757 16.7275C111.024 17.0317 111.541 17.3529 112.307 17.6908C113.074 18.0288 114.257 18.4345 115.857 18.9077C118.624 19.719 120.674 20.7838 122.007 22.1021C123.374 23.3867 124.057 25.1781 124.057 27.4768C124.057 29.3021 123.541 30.8909 122.507 32.243C121.474 33.5613 120.057 34.5753 118.257 35.2852C116.457 35.9951 114.457 36.35 112.257 36.35C110.024 36.35 107.941 35.9951 106.007 35.2852C104.107 34.5753 102.491 33.595 101.157 32.3444L105.007 27.9838C107.241 29.7415 109.591 30.6204 112.057 30.6204C113.257 30.6204 114.191 30.4007 114.857 29.9613C115.557 29.5219 115.907 28.8965 115.907 28.0852C115.907 27.443 115.774 26.9359 115.507 26.5641C115.241 26.1922 114.724 25.8542 113.957 25.55C113.191 25.212 111.974 24.8064 110.307 24.3331C107.674 23.5556 105.707 22.474 104.407 21.088C103.107 19.7021 102.457 17.9781 102.457 15.9162C102.457 14.3613 102.891 12.9754 103.757 11.7584C104.657 10.5078 105.924 9.52746 107.557 8.8176C109.224 8.07395 111.141 7.70211 113.307 7.70211ZM163.843 0.349998L163.043 6.73873H154.493V35.488H146.293V6.73873H137.343V0.349998H163.843ZM175.76 7.70211C179.827 7.70211 183.01 8.96972 185.31 11.5049C187.61 14.0064 188.76 17.5218 188.76 22.0514C188.76 24.9246 188.227 27.443 187.16 29.6063C186.127 31.7359 184.627 33.3922 182.66 34.5753C180.727 35.7585 178.427 36.35 175.76 36.35C171.727 36.35 168.543 35.0993 166.21 32.5979C163.91 30.0627 162.76 26.5303 162.76 22.0007C162.76 19.1275 163.277 16.6261 164.31 14.4965C165.377 12.3331 166.877 10.6599 168.81 9.47676C170.777 8.29366 173.093 7.70211 175.76 7.70211ZM175.76 13.5838C174.16 13.5838 172.96 14.2767 172.16 15.6627C171.36 17.0148 170.96 19.1275 170.96 22.0007C170.96 24.9415 171.343 27.0881 172.11 28.4401C172.91 29.7922 174.127 30.4683 175.76 30.4683C177.36 30.4683 178.56 29.7922 179.36 28.4401C180.16 27.0542 180.56 24.9246 180.56 22.0514C180.56 19.1106 180.16 16.964 179.36 15.612C178.593 14.2599 177.393 13.5838 175.76 13.5838ZM207.859 7.80352C208.826 7.80352 209.709 7.92183 210.509 8.15845L209.259 15.9162C208.259 15.6796 207.459 15.5613 206.859 15.5613C205.293 15.5613 204.093 16.119 203.259 17.2345C202.459 18.3162 201.826 19.9556 201.359 22.1528V35.488H193.459V8.56408H200.359L201.009 13.7866C201.609 11.9275 202.509 10.4739 203.709 9.42606C204.943 8.34436 206.326 7.80352 207.859 7.80352ZM227.928 7.80352C228.894 7.80352 229.778 7.92183 230.578 8.15845L229.328 15.9162C228.328 15.6796 227.528 15.5613 226.928 15.5613C225.361 15.5613 224.161 16.119 223.328 17.2345C222.528 18.3162 221.894 19.9556 221.428 22.1528V35.488H213.528V8.56408H220.428L221.078 13.7866C221.678 11.9275 222.578 10.4739 223.778 9.42606C225.011 8.34436 226.394 7.80352 227.928 7.80352ZM255.232 21.4937C255.232 22.6092 255.182 23.5725 255.082 24.3838H238.632C238.899 26.6486 239.532 28.2373 240.532 29.15C241.532 30.0627 242.916 30.519 244.682 30.519C245.749 30.519 246.782 30.3331 247.782 29.9613C248.782 29.5556 249.866 28.9472 251.032 28.1359L254.282 32.5979C251.182 35.0993 247.732 36.35 243.932 36.35C239.632 36.35 236.332 35.0655 234.032 32.4965C231.732 29.9275 230.582 26.4796 230.582 22.1528C230.582 19.4148 231.066 16.964 232.032 14.8007C232.999 12.6035 234.416 10.8795 236.282 9.62887C238.149 8.34436 240.382 7.70211 242.982 7.70211C246.816 7.70211 249.816 8.91901 251.982 11.3528C254.149 13.7866 255.232 17.1669 255.232 21.4937ZM247.482 19.212C247.416 15.088 245.982 13.0261 243.182 13.0261C241.816 13.0261 240.749 13.5331 239.982 14.5472C239.249 15.5613 238.799 17.2345 238.632 19.5669H247.482V19.212ZM269.02 7.70211C270.92 7.70211 272.704 7.98943 274.37 8.56408C276.037 9.13873 277.504 9.95 278.77 10.9979L275.87 15.5106C273.704 14.1246 271.52 13.4317 269.32 13.4317C268.287 13.4317 267.487 13.6176 266.92 13.9894C266.387 14.3274 266.12 14.8176 266.12 15.4599C266.12 15.9669 266.237 16.3895 266.47 16.7275C266.737 17.0317 267.254 17.3529 268.02 17.6908C268.787 18.0288 269.97 18.4345 271.57 18.9077C274.337 19.719 276.387 20.7838 277.72 22.1021C279.087 23.3867 279.77 25.1781 279.77 27.4768C279.77 29.3021 279.254 30.8909 278.22 32.243C277.187 33.5613 275.77 34.5753 273.97 35.2852C272.17 35.9951 270.17 36.35 267.97 36.35C265.737 36.35 263.654 35.9951 261.72 35.2852C259.82 34.5753 258.204 33.595 256.87 32.3444L260.72 27.9838C262.954 29.7415 265.304 30.6204 267.77 30.6204C268.97 30.6204 269.904 30.4007 270.57 29.9613C271.27 29.5219 271.62 28.8965 271.62 28.0852C271.62 27.443 271.487 26.9359 271.22 26.5641C270.954 26.1922 270.437 25.8542 269.67 25.55C268.904 25.212 267.687 24.8064 266.02 24.3331C263.387 23.5556 261.42 22.474 260.12 21.088C258.82 19.7021 258.17 17.9781 258.17 15.9162C258.17 14.3613 258.604 12.9754 259.47 11.7584C260.37 10.5078 261.637 9.52746 263.27 8.8176C264.937 8.07395 266.854 7.70211 269.02 7.70211Z"  fill="#333"/>
</svg>